<svg xmlns="http://www.w3.org/2000/svg" width="590" height="234" viewBox="0 0 590 234">
<style>
  .sans { font-family: 'Segoe UI', 'Helvetica Neue', Helvetica, Arial, sans-serif; }
  .mono { font-family: 'JetBrains Mono', 'SFMono-Regular', Consolas, 'Liberation Mono', monospace; }
  
  .head { animation: sweep 2.4s ease-in-out infinite alternate; }
  .left { transform-origin: 398px 84px; }
  .right { transform-origin: 508px 84px; animation-direction: alternate-reverse; }
  @keyframes sweep { from { transform: rotate(-28deg); } to { transform: rotate(28deg); } }
  .hand { transform-box: fill-box; transform-origin: bottom; animation: jump 0.4s ease-in-out infinite alternate; }
  @keyframes jump { from { transform: translateY(0); } to { transform: translateY(-4px); } }
  @media (prefers-reduced-motion: reduce) { * { animation: none !important; } }
</style>


<rect x="8" y="8" width="580" height="224" fill="#E5484D"/>
<rect x="1.5" y="1.5" width="577" height="221" fill="#1A0E10" stroke="#F5E6E8" stroke-width="3"/>
<text x="28" y="62" class="sans" font-size="30" font-weight="800" fill="#F5E6E8">Festivals</text>
<text x="28" y="100" class="sans" font-size="17" fill="#A88A8F">Les festivals électro, surtout :</text>
<rect x="32" y="132" width="146" height="32" fill="#6E1519"/><rect x="28" y="128" width="146" height="32" fill="#E5484D"/><text x="101" y="149" text-anchor="middle" class="mono" font-size="13" font-weight="700" letter-spacing="1.5" fill="#1A0E10">PAROOKAVILLE</text><rect x="190" y="132" width="146" height="32" fill="#6E1519"/><rect x="186" y="128" width="146" height="32" fill="#E5484D"/><text x="259" y="149" text-anchor="middle" class="mono" font-size="13" font-weight="700" letter-spacing="1.5" fill="#1A0E10">TOMORROWLAND</text><rect x="32" y="176" width="106" height="32" fill="#6E1519"/><rect x="28" y="172" width="106" height="32" fill="#E5484D"/><text x="81" y="193" text-anchor="middle" class="mono" font-size="13" font-weight="700" letter-spacing="1.5" fill="#1A0E10">DEFQON.1</text>

<defs>
  <linearGradient id="beam" gradientUnits="userSpaceOnUse" x1="0" y1="80" x2="0" y2="222">
    <stop offset="0" stop-color="#FF8A5B" stop-opacity="0.85"/>
    <stop offset="1" stop-color="#E5484D" stop-opacity="0"/>
  </linearGradient>
  <clipPath id="stage"><rect x="330" y="6" width="244" height="212"/></clipPath>
</defs>
<g clip-path="url(#stage)">
  
<g class="head left">
  <polygon points="393,80 403,80 444,222 352,222" fill="url(#beam)"/>
  <rect x="387" y="65" width="22" height="22" rx="4" fill="#F5E6E8"/>
  <circle cx="398" cy="84" r="6" fill="#FF8A5B"/>
  <circle cx="398" cy="84" r="3" fill="#FFFFFF"/>
</g>
<path d="M382 50 V74 M414 50 V74" stroke="#A88A8F" stroke-width="4" stroke-linecap="round"/>
<rect x="378" y="42" width="40" height="10" fill="#A88A8F"/>
<rect x="393" y="32" width="10" height="10" fill="#F5E6E8"/>
  
<g class="head right">
  <polygon points="503,80 513,80 554,222 462,222" fill="url(#beam)"/>
  <rect x="497" y="65" width="22" height="22" rx="4" fill="#F5E6E8"/>
  <circle cx="508" cy="84" r="6" fill="#FF8A5B"/>
  <circle cx="508" cy="84" r="3" fill="#FFFFFF"/>
</g>
<path d="M492 50 V74 M524 50 V74" stroke="#A88A8F" stroke-width="4" stroke-linecap="round"/>
<rect x="488" y="42" width="40" height="10" fill="#A88A8F"/>
<rect x="503" y="32" width="10" height="10" fill="#F5E6E8"/>
  <circle cx="350" cy="190" r="6" fill="#6E1519"/><rect x="342" y="197" width="16" height="14" rx="4" fill="#6E1519"/><circle cx="372" cy="196" r="6" fill="#6E1519"/><rect x="364" y="203" width="16" height="14" rx="4" fill="#6E1519"/><rect class="hand" x="377" y="176" width="4" height="18" rx="2" fill="#6E1519" style="animation-delay:-0.1s"/><circle cx="386" cy="196" r="6" fill="#6E1519"/><rect x="378" y="203" width="16" height="14" rx="4" fill="#6E1519"/><circle cx="408" cy="190" r="6" fill="#6E1519"/><rect x="400" y="197" width="16" height="14" rx="4" fill="#6E1519"/><circle cx="422" cy="196" r="6" fill="#6E1519"/><rect x="414" y="203" width="16" height="14" rx="4" fill="#6E1519"/><circle cx="444" cy="196" r="6" fill="#6E1519"/><rect x="436" y="203" width="16" height="14" rx="4" fill="#6E1519"/><rect class="hand" x="449" y="176" width="4" height="18" rx="2" fill="#6E1519" style="animation-delay:-0.5s"/><circle cx="458" cy="190" r="6" fill="#6E1519"/><rect x="450" y="197" width="16" height="14" rx="4" fill="#6E1519"/><circle cx="480" cy="196" r="6" fill="#6E1519"/><rect x="472" y="203" width="16" height="14" rx="4" fill="#6E1519"/><circle cx="494" cy="196" r="6" fill="#6E1519"/><rect x="486" y="203" width="16" height="14" rx="4" fill="#6E1519"/><circle cx="516" cy="190" r="6" fill="#6E1519"/><rect x="508" y="197" width="16" height="14" rx="4" fill="#6E1519"/><rect class="hand" x="521" y="176" width="4" height="18" rx="2" fill="#6E1519" style="animation-delay:-0.9s"/><circle cx="530" cy="196" r="6" fill="#6E1519"/><rect x="522" y="203" width="16" height="14" rx="4" fill="#6E1519"/><circle cx="552" cy="196" r="6" fill="#6E1519"/><rect x="544" y="203" width="16" height="14" rx="4" fill="#6E1519"/>
</g>
<rect x="340" y="26" width="226" height="6" fill="#F5E6E8"/><rect x="340" y="38" width="226" height="6" fill="#F5E6E8"/><path d="M340 32 L348 38 L356 32" fill="none" stroke="#F5E6E8" stroke-width="2"/><path d="M356 32 L364 38 L372 32" fill="none" stroke="#F5E6E8" stroke-width="2"/><path d="M372 32 L380 38 L388 32" fill="none" stroke="#F5E6E8" stroke-width="2"/><path d="M388 32 L396 38 L404 32" fill="none" stroke="#F5E6E8" stroke-width="2"/><path d="M404 32 L412 38 L420 32" fill="none" stroke="#F5E6E8" stroke-width="2"/><path d="M420 32 L428 38 L436 32" fill="none" stroke="#F5E6E8" stroke-width="2"/><path d="M436 32 L444 38 L452 32" fill="none" stroke="#F5E6E8" stroke-width="2"/><path d="M452 32 L460 38 L468 32" fill="none" stroke="#F5E6E8" stroke-width="2"/><path d="M468 32 L476 38 L484 32" fill="none" stroke="#F5E6E8" stroke-width="2"/><path d="M484 32 L492 38 L500 32" fill="none" stroke="#F5E6E8" stroke-width="2"/><path d="M500 32 L508 38 L516 32" fill="none" stroke="#F5E6E8" stroke-width="2"/><path d="M516 32 L524 38 L532 32" fill="none" stroke="#F5E6E8" stroke-width="2"/><path d="M532 32 L540 38 L548 32" fill="none" stroke="#F5E6E8" stroke-width="2"/><path d="M548 32 L556 38 L564 32" fill="none" stroke="#F5E6E8" stroke-width="2"/>

</svg>
