<svg xmlns="http://www.w3.org/2000/svg" width="1200" height="288" viewBox="0 0 1200 288">
<style>
  .sans { font-family: 'Segoe UI', 'Helvetica Neue', Helvetica, Arial, sans-serif; }
  .mono { font-family: 'JetBrains Mono', 'SFMono-Regular', Consolas, 'Liberation Mono', monospace; }
  
  @media (prefers-reduced-motion: reduce) { * { animation: none !important; } }
</style>
<rect x="1" y="1" width="1198" height="286" rx="14" fill="#161B22" stroke="#30363D"/><text x="36" y="52" class="mono" font-size="13" letter-spacing="2" fill="#3E9CDE">LANGAGES</text><rect x="230" y="28" width="68" height="36" rx="8" fill="none" stroke="#30363D"/><text x="264" y="52" text-anchor="middle" class="sans" font-size="16" fill="#E6EDF3">Java</text><rect x="310" y="28" width="68" height="36" rx="8" fill="none" stroke="#30363D"/><text x="344" y="52" text-anchor="middle" class="sans" font-size="16" fill="#E6EDF3">Rust</text><rect x="390" y="28" width="122" height="36" rx="8" fill="none" stroke="#30363D"/><text x="451" y="52" text-anchor="middle" class="sans" font-size="16" fill="#E6EDF3">TypeScript</text><rect x="524" y="28" width="122" height="36" rx="8" fill="none" stroke="#30363D"/><text x="585" y="52" text-anchor="middle" class="sans" font-size="16" fill="#E6EDF3">JavaScript</text><rect x="658" y="28" width="41" height="36" rx="8" fill="none" stroke="#30363D"/><text x="678.5" y="52" text-anchor="middle" class="sans" font-size="16" fill="#E6EDF3">C</text><text x="36" y="114" class="mono" font-size="13" letter-spacing="2" fill="#3E9CDE">MINECRAFT</text><rect x="230" y="90" width="140" height="36" rx="8" fill="none" stroke="#30363D"/><text x="300" y="114" text-anchor="middle" class="sans" font-size="16" fill="#E6EDF3">Forge 1.7.10</text><rect x="382" y="90" width="167" height="36" rx="8" fill="none" stroke="#30363D"/><text x="465.5" y="114" text-anchor="middle" class="sans" font-size="16" fill="#E6EDF3">Bukkit / Spigot</text><rect x="561" y="90" width="104" height="36" rx="8" fill="none" stroke="#30363D"/><text x="613" y="114" text-anchor="middle" class="sans" font-size="16" fill="#E6EDF3">Crucible</text><text x="36" y="176" class="mono" font-size="13" letter-spacing="2" fill="#3E9CDE">WEB &amp; APPS</text><rect x="230" y="152" width="95" height="36" rx="8" fill="none" stroke="#30363D"/><text x="277.5" y="176" text-anchor="middle" class="sans" font-size="16" fill="#E6EDF3">Tauri 2</text><rect x="337" y="152" width="104" height="36" rx="8" fill="none" stroke="#30363D"/><text x="389" y="176" text-anchor="middle" class="sans" font-size="16" fill="#E6EDF3">Svelte 5</text><rect x="453" y="152" width="77" height="36" rx="8" fill="none" stroke="#30363D"/><text x="491.5" y="176" text-anchor="middle" class="sans" font-size="16" fill="#E6EDF3">React</text><rect x="542" y="152" width="95" height="36" rx="8" fill="none" stroke="#30363D"/><text x="589.5" y="176" text-anchor="middle" class="sans" font-size="16" fill="#E6EDF3">Node.js</text><rect x="649" y="152" width="95" height="36" rx="8" fill="none" stroke="#30363D"/><text x="696.5" y="176" text-anchor="middle" class="sans" font-size="16" fill="#E6EDF3">Express</text><rect x="756" y="152" width="68" height="36" rx="8" fill="none" stroke="#30363D"/><text x="790" y="176" text-anchor="middle" class="sans" font-size="16" fill="#E6EDF3">Vite</text><text x="36" y="238" class="mono" font-size="13" letter-spacing="2" fill="#3E9CDE">OUTILS</text><rect x="230" y="214" width="59" height="36" rx="8" fill="none" stroke="#30363D"/><text x="259.5" y="238" text-anchor="middle" class="sans" font-size="16" fill="#E6EDF3">Git</text><rect x="301" y="214" width="86" height="36" rx="8" fill="none" stroke="#30363D"/><text x="344" y="238" text-anchor="middle" class="sans" font-size="16" fill="#E6EDF3">Docker</text><rect x="399" y="214" width="77" height="36" rx="8" fill="none" stroke="#30363D"/><text x="437.5" y="238" text-anchor="middle" class="sans" font-size="16" fill="#E6EDF3">Linux</text><rect x="488" y="214" width="77" height="36" rx="8" fill="none" stroke="#30363D"/><text x="526.5" y="238" text-anchor="middle" class="sans" font-size="16" fill="#E6EDF3">Maven</text><rect x="577" y="214" width="86" height="36" rx="8" fill="none" stroke="#30363D"/><text x="620" y="238" text-anchor="middle" class="sans" font-size="16" fill="#E6EDF3">Gradle</text>
</svg>
